<?xml version="1.0" encoding="UTF-8"?>

<svg version="1.2" baseProfile="tiny" width="210mm" height="297mm" viewBox="0 0 21000 29700" preserveAspectRatio="xMidYMid" fill-rule="evenodd" clip-path="url(#presentation_clip_path)" stroke-width="28.222" stroke-linejoin="round" xmlns="http://www.w3.org/2000/svg" xmlns:ooo="http://xml.openoffice.org/svg/export" xmlns:xlink="http://www.w3.org/1999/xlink" xml:space="preserve">
 <defs class="ClipPathGroup">
  <clipPath id="presentation_clip_path" clipPathUnits="userSpaceOnUse">
   <rect x="0" y="0" width="21000" height="29700"/>
  </clipPath>
 </defs>
 <defs class="TextShapeIndex">
  <g ooo:slide="id1" ooo:id-list="id3 id4 id5 id6 id7 id8 id9 id10 id11 id12 id13 id14"/>
 </defs>
 <defs class="EmbeddedBulletChars">
  <g id="bullet-char-template(57356)" transform="scale(0.00048828125,-0.00048828125)">
   <path d="M 580,1141 L 1163,571 580,0 -4,571 580,1141 Z"/>
  </g>
  <g id="bullet-char-template(57354)" transform="scale(0.00048828125,-0.00048828125)">
   <path d="M 8,1128 L 1137,1128 1137,0 8,0 8,1128 Z"/>
  </g>
  <g id="bullet-char-template(10146)" transform="scale(0.00048828125,-0.00048828125)">
   <path d="M 174,0 L 602,739 174,1481 1456,739 174,0 Z M 1358,739 L 309,1346 659,739 1358,739 Z"/>
  </g>
  <g id="bullet-char-template(10132)" transform="scale(0.00048828125,-0.00048828125)">
   <path d="M 2015,739 L 1276,0 717,0 1260,543 174,543 174,936 1260,936 717,1481 1274,1481 2015,739 Z"/>
  </g>
  <g id="bullet-char-template(10007)" transform="scale(0.00048828125,-0.00048828125)">
   <path d="M 0,-2 C -7,14 -16,27 -25,37 L 356,567 C 262,823 215,952 215,954 215,979 228,992 255,992 264,992 276,990 289,987 310,991 331,999 354,1012 L 381,999 492,748 772,1049 836,1024 860,1049 C 881,1039 901,1025 922,1006 886,937 835,863 770,784 769,783 710,716 594,584 L 774,223 C 774,196 753,168 711,139 L 727,119 C 717,90 699,76 672,76 641,76 570,178 457,381 L 164,-76 C 142,-110 111,-127 72,-127 30,-127 9,-110 8,-76 1,-67 -2,-52 -2,-32 -2,-23 -1,-13 0,-2 Z"/>
  </g>
  <g id="bullet-char-template(10004)" transform="scale(0.00048828125,-0.00048828125)">
   <path d="M 285,-33 C 182,-33 111,30 74,156 52,228 41,333 41,471 41,549 55,616 82,672 116,743 169,778 240,778 293,778 328,747 346,684 L 369,508 C 377,444 397,411 428,410 L 1163,1116 C 1174,1127 1196,1133 1229,1133 1271,1133 1292,1118 1292,1087 L 1292,965 C 1292,929 1282,901 1262,881 L 442,47 C 390,-6 338,-33 285,-33 Z"/>
  </g>
  <g id="bullet-char-template(9679)" transform="scale(0.00048828125,-0.00048828125)">
   <path d="M 813,0 C 632,0 489,54 383,161 276,268 223,411 223,592 223,773 276,916 383,1023 489,1130 632,1184 813,1184 992,1184 1136,1130 1245,1023 1353,916 1407,772 1407,592 1407,412 1353,268 1245,161 1136,54 992,0 813,0 Z"/>
  </g>
  <g id="bullet-char-template(8226)" transform="scale(0.00048828125,-0.00048828125)">
   <path d="M 346,457 C 273,457 209,483 155,535 101,586 74,649 74,723 74,796 101,859 155,911 209,963 273,989 346,989 419,989 480,963 531,910 582,859 608,796 608,723 608,648 583,586 532,535 482,483 420,457 346,457 Z"/>
  </g>
  <g id="bullet-char-template(8211)" transform="scale(0.00048828125,-0.00048828125)">
   <path d="M -4,459 L 1135,459 1135,606 -4,606 -4,459 Z"/>
  </g>
 </defs>
 <defs class="TextEmbeddedBitmaps"/>
 <g>
  <g id="id2" class="Master_Slide">
   <g id="bg-id2" class="Background"/>
   <g id="bo-id2" class="BackgroundObjects"/>
  </g>
 </g>
 <g class="SlideGroup">
  <g>
   <g id="id1" class="Slide" clip-path="url(#presentation_clip_path)">
    <g class="Page">
     <g class="com.sun.star.drawing.PolyPolygonShape">
      <g id="id3">
       <path fill="rgb(0,0,0)" stroke="none" d="M 1,-1 L 1,0 1,0 0,0 1,-1 Z"/>
      </g>
     </g>
     <g class="com.sun.star.drawing.PolyPolygonShape">
      <g id="id4">
       <path fill="rgb(0,0,0)" stroke="none" d="M 0,-1 L 1,-1 1,0 0,0 0,-1 Z"/>
      </g>
     </g>
     <g class="com.sun.star.drawing.PolyPolygonShape">
      <g id="id5">
       <path fill="rgb(0,0,0)" stroke="none" d="M 0,0 L 0,0 0,-1 1,0 0,0 Z M 1,0 L 0,-1 0,0 1,0 Z"/>
      </g>
     </g>
     <g class="com.sun.star.drawing.PolyPolygonShape">
      <g id="id6">
       <path fill="rgb(0,0,0)" stroke="none" d="M 2,0 L 1,0 1,0 1,0 0,0 0,0 1,0 1,-1 1,-1 2,0 Z"/>
      </g>
     </g>
     <g class="com.sun.star.drawing.PolyPolygonShape">
      <g id="id7">
       <path fill="rgb(0,0,0)" stroke="none" d="M 0,0 L 0,-1 0,-1 0,-1 0,-1 0,-1 0,-1 0,-1 0,-1 0,-1 0,-1 0,-1 0,-1 0,-1 0,-1 0,-1 0,-1 0,-1 0,-1 0,-1 0,0 Z"/>
      </g>
     </g>
     <g class="com.sun.star.drawing.PolyPolygonShape">
      <g id="id8">
       <path fill="rgb(0,0,0)" stroke="none" d="M 0,0 L 0,0 0,0 0,-1 0,-1 0,-1 0,0 0,0 1,-1 1,-1 1,-1 1,-1 1,-1 0,0 Z"/>
      </g>
     </g>
     <g class="com.sun.star.drawing.ClosedBezierShape">
      <g id="id9">
       <path fill="rgb(0,0,0)" stroke="none" d="M 1,0 C 0,0 0,0 0,0 L 0,0 C 0,-1 0,-1 0,-1 L 1,-1 1,-1 1,0 Z"/>
      </g>
     </g>
     <g class="com.sun.star.drawing.PolyPolygonShape">
      <g id="id10">
       <path fill="rgb(0,0,0)" stroke="none" d="M 0,0 L 0,0 Z"/>
      </g>
     </g>
     <g class="com.sun.star.drawing.PolyPolygonShape">
      <g id="id11">
       <path fill="rgb(0,0,0)" stroke="none" d="M 0,0 L 1,0 1,0 0,0 Z"/>
      </g>
     </g>
     <g class="com.sun.star.drawing.PolyPolygonShape">
      <g id="id12">
       <path fill="none" stroke="rgb(0,0,0)" stroke-width="28" stroke-linejoin="round" d="M 11867,3610 L 12401,3636 12659,3668 12910,3714 13155,3771 13393,3841 13624,3922 13848,4015 14065,4120 14275,4236 14477,4363 14671,4501 14857,4650 15035,4808 15205,4977 15366,5156 15521,5346 15666,5546 15802,5754 15929,5972 16153,6434 16338,6930 16481,7458 16581,8019 16636,8609 16646,9229 16594,10027 16472,10774 16386,11129 16283,11469 16163,11795 16027,12106 15875,12402 15707,12683 15522,12949 15323,13199 15108,13432 14877,13649 14632,13848 14372,14031 14093,14203 13828,14350 13578,14471 13342,14567 13120,14638 12913,14685 12814,14699 12719,14707 12628,14709 12540,14705 12453,14694 12369,14678 12287,14656 12208,14628 12132,14595 12057,14556 11984,14510 11913,14459 11844,14402 11777,14338 11711,14267 11646,14191 11520,14017 11398,13815 11126,13363 10807,12867 10479,12384 10181,11972 9528,11145 9270,10811 9233,11217 9067,12934 9026,13308 8973,13644 8909,13940 8874,14072 8837,14193 8801,14302 8782,14352 8762,14399 8742,14443 8722,14483 8701,14520 8681,14552 8664,14580 8648,14603 8633,14622 8620,14637 8613,14642 8607,14647 8602,14651 8596,14655 8591,14657 8587,14659 8583,14660 8581,14660 8579,14660 8576,14662 8573,14663 8570,14664 8567,14664 8565,14664 8563,14664 8561,14664 8560,14664 8559,14663 8558,14663 8557,14662 8557,14661 8558,14661 8559,14660 8561,14660 8562,14660 8564,14661 8565,14661 8566,14661 8567,14662 8567,14661 8565,14660 8562,14656 8558,14651 8552,14642 8546,14631 8541,14617 8529,14582 8518,14537 8506,14482 8482,14343 8460,14166 8435,13687 8430,13036 8469,11145 8498,9686 8493,9069 8478,8546 8462,8121 8449,7954 8441,7882 8432,7817 8428,7788 8423,7761 8417,7736 8410,7712 8402,7688 8392,7666 8380,7643 8367,7620 8352,7589 8348,7580 8342,7572 8336,7564 8329,7556 8322,7548 8313,7540 8303,7533 8291,7527 8278,7522 8264,7517 8247,7514 8229,7512 8219,7510 8209,7510 8198,7510 8188,7511 8178,7512 8169,7514 8150,7520 8132,7526 8117,7533 8103,7541 8091,7548 8078,7561 8065,7575 8059,7581 8054,7588 8049,7595 8045,7602 7986,7703 7932,7817 7885,7941 7845,8071 7813,8206 7789,8342 7774,8478 7769,8609 7768,8655 7764,8701 7758,8744 7749,8785 7739,8823 7726,8858 7719,8873 7712,8888 7704,8902 7695,8914 7682,8939 7668,8959 7655,8974 7649,8981 7643,8986 7638,8991 7633,8995 7628,8998 7624,9000 7620,9002 7617,9003 7614,9004 7613,9004 7612,9004 7590,9004 7581,9003 7572,9002 7564,9000 7556,8998 7549,8995 7542,8992 7536,8988 7530,8983 7524,8977 7518,8970 7506,8953 7493,8932 7482,8902 7473,8866 7464,8824 7457,8778 7452,8728 7450,8676 7451,8620 7456,8564 7472,8438 7500,8305 7539,8166 7589,8024 7650,7880 7720,7737 7800,7595 7889,7458 7938,7398 7997,7332 8146,7189 8328,7035 8534,6876 8759,6717 8993,6565 9230,6426 9463,6307 9789,6164 10070,6059 10199,6020 10322,5990 10441,5969 10559,5956 10675,5952 10792,5956 10912,5968 11037,5988 11308,6052 11619,6145 11726,6182 11832,6224 11936,6270 12039,6320 12138,6374 12234,6431 12325,6490 12411,6550 12490,6611 12563,6673 12629,6734 12686,6794 12734,6850 12772,6902 12787,6927 12799,6950 12809,6971 12816,6990 12831,7045 12842,7105 12849,7170 12852,7240 12851,7313 12846,7391 12823,7557 12783,7734 12728,7921 12656,8114 12567,8312 12463,8511 12346,8711 12216,8909 12076,9103 11925,9292 11766,9475 11599,9649 11425,9813 11220,9996 11135,10080 11062,10161 11000,10240 10974,10280 10951,10320 10932,10361 10915,10402 10902,10444 10891,10488 10887,10510 10884,10532 10881,10554 10881,10576 10882,10621 10888,10665 10898,10708 10911,10751 10927,10791 10947,10829 10969,10869 10995,10909 11023,10948 11054,10989 11195,11154 11285,11265 11391,11419 11509,11607 11635,11821 11889,12302 12008,12552 12116,12799 12223,13031 12338,13239 12460,13425 12588,13587 12654,13659 12722,13726 12791,13787 12862,13842 12934,13891 13007,13935 13081,13972 13156,14004 13233,14031 13309,14051 13386,14065 13462,14073 13539,14074 13616,14070 13692,14059 13768,14043 13843,14022 13917,13994 13991,13962 14064,13924 14136,13882 14207,13834 14276,13782 14344,13725 14475,13602 14600,13462 14721,13307 14835,13135 14942,12949 15043,12747 15137,12532 15222,12302 15368,11805 15477,11257 15545,10664 15569,10029 15551,9377 15492,8758 15393,8172 15255,7622 15078,7107 14863,6631 14742,6407 14612,6193 14473,5988 14326,5794 14168,5611 14001,5439 13826,5278 13642,5128 13450,4990 13250,4863 13042,4747 12826,4644 12603,4552 12372,4472 12133,4404 11888,4348 11635,4305 11375,4273 10836,4248 10349,4257 10131,4269 9928,4289 9737,4317 9556,4354 9382,4403 9215,4464 9047,4538 8881,4625 8714,4727 8544,4844 8366,4977 8180,5126 7769,5480 7135,6087 6854,6397 6597,6713 6363,7035 6152,7366 5962,7705 5795,8053 5649,8413 5524,8784 5419,9168 5333,9566 5221,10407 5182,11316 5204,12120 5283,12849 5345,13191 5423,13519 5519,13836 5632,14143 5763,14443 5914,14737 6084,15028 6276,15316 6723,15894 7263,16485 7595,16795 7770,16935 7951,17065 8136,17184 8326,17293 8521,17391 8721,17479 8924,17556 9132,17623 9343,17679 9558,17724 9998,17783 10448,17798 10913,17770 11386,17700 11866,17589 12353,17436 12846,17242 13345,17006 13847,16730 14353,16413 14580,16272 14780,16156 15118,15973 14892,16165 14755,16275 14584,16404 13813,16939 13061,17384 12330,17740 11618,18007 11269,18107 10926,18185 10588,18241 10254,18276 9926,18288 9604,18278 9287,18247 8975,18194 8704,18130 8441,18053 8187,17962 7940,17857 7700,17737 7467,17601 7239,17449 7015,17281 6796,17095 6579,16892 6154,16429 5733,15887 5310,15263 5059,14829 4847,14382 4672,13925 4534,13457 4432,12982 4366,12501 4334,12015 4334,11527 4368,11038 4433,10549 4528,10063 4653,9582 4806,9107 4988,8640 5196,8183 5430,7736 5691,7304 5975,6886 6281,6486 6609,6104 6958,5743 7326,5404 7712,5089 8117,4800 8537,4538 8974,4305 9425,4102 9890,3932 10367,3796 10857,3696 11357,3633 11867,3610 Z"/>
      </g>
     </g>
     <g class="com.sun.star.drawing.PolyPolygonShape">
      <g id="id13">
       <path fill="none" stroke="rgb(0,0,0)" stroke-width="28" stroke-linejoin="round" d="M 10052,7107 L 10129,7110 10206,7118 10284,7132 10362,7150 10440,7174 10517,7201 10670,7270 10818,7354 10957,7452 11087,7562 11204,7683 11307,7810 11395,7943 11432,8010 11465,8078 11494,8146 11519,8214 11538,8282 11553,8349 11563,8415 11568,8481 11568,8545 11563,8607 11552,8668 11536,8726 11518,8776 11492,8829 11458,8885 11418,8944 11319,9066 11200,9191 11065,9312 10920,9426 10768,9526 10691,9569 10615,9607 10452,9675 10313,9727 10252,9746 10197,9762 10149,9772 10108,9778 10073,9784 10045,9786 10033,9786 10022,9786 10012,9784 10003,9782 9994,9778 9986,9774 9977,9768 9969,9762 9961,9754 9952,9746 9933,9724 9915,9693 9897,9653 9878,9605 9859,9548 9840,9482 9821,9407 9785,9230 9747,9010 9713,8753 9647,8114 9621,7771 9613,7509 9615,7408 9621,7325 9626,7291 9632,7261 9639,7236 9647,7215 9657,7197 9667,7182 9672,7176 9677,7170 9682,7165 9688,7161 9693,7157 9700,7153 9706,7150 9713,7147 9730,7141 9749,7134 9774,7128 9804,7122 9837,7118 9873,7114 9956,7109 10052,7107 Z"/>
      </g>
     </g>
     <g class="com.sun.star.drawing.CustomShape">
      <g id="id14">
       <path fill="none" stroke="rgb(0,0,0)" d="M 10800,20400 L 1800,20400 1800,1200 19800,1200 19800,20400 10800,20400 Z"/>
      </g>
     </g>
    </g>
   </g>
  </g>
 </g>
</svg>